<svg width="105" height="105" viewBox="0 0 105 105" fill="none" xmlns="http://www.w3.org/2000/svg">
<path d="M59.8517 44.8918L60.2421 44.9524L71.722 46.7524C75.4168 47.1742 78.1601 46.4767 79.9486 44.6475C80.6826 43.756 81.1489 42.7094 81.3564 41.4921L81.4262 40.8059C81.4326 40.6306 81.4515 40.4519 81.4579 40.2766C81.3245 36.9348 78.9758 34.5224 74.4117 33.0392L37.1234 21.8097C36.2358 21.5277 35.2927 21.2873 34.2917 21.1292C34.2354 21.1176 34.1823 21.1184 34.1384 21.1036C31.4702 20.686 29.0557 21.2684 26.8859 22.8664C24.7161 24.4645 23.4192 26.5888 23.0019 29.2643C22.5812 31.9274 23.1702 34.3324 24.7631 36.5075C25.1464 37.0453 25.5786 37.5165 26.0413 37.9528C26.8565 38.7616 28.0288 39.4611 29.5263 40.0331C30.0062 40.1845 30.4918 40.3076 30.9923 40.3866C31.0611 40.3948 31.105 40.4097 31.1456 40.4122L42.4303 42.1865C42.4117 42.4198 42.4022 42.6556 42.4022 42.8937V79.3096C42.4022 84.1442 46.3084 88.0634 51.127 88.0634C55.9455 88.0634 59.8517 84.1442 59.8517 79.3096V44.8918ZM36.5804 0H68.1164C79.7717 0 84.8667 0.987169 90.1444 3.8191C94.778 6.30544 98.4123 9.95194 100.89 14.601C103.713 19.8963 104.697 25.0082 104.697 36.7023V68.3435C104.697 80.0376 103.713 85.1496 100.89 90.4448C98.4123 95.0939 94.778 98.7404 90.1444 101.227C84.8667 104.059 79.7717 105.046 68.1164 105.046H36.5804C24.9251 105.046 19.8301 104.059 14.5525 101.227C9.91888 98.7404 6.2845 95.0939 3.80642 90.4448C0.983889 85.1496 0 80.0376 0 68.3435V36.7023C0 25.0082 0.983889 19.8963 3.80642 14.601C6.2845 9.95194 9.91888 6.30544 14.5525 3.8191C19.8301 0.987169 24.9251 0 36.5804 0ZM83.0595 23.8106C83.0595 22.0629 82.448 20.5848 81.225 19.3485C79.9927 18.1213 78.5103 17.4984 76.7777 17.5076C75.0451 17.4984 73.5627 18.1213 72.3396 19.3485C71.1074 20.5848 70.4959 22.0629 70.4959 23.8106C70.4959 25.549 71.1074 27.0363 72.3396 28.2634C73.5627 29.4998 75.0451 30.1133 76.7777 30.1133C78.5103 30.1133 79.9927 29.4998 81.225 28.2634C82.448 27.0363 83.0595 25.549 83.0595 23.8106Z" fill="#143DF4"/>
</svg>
